# xmcd
#
# Track frame offsets:
#	150
#	19482
#	38627
#	57092
#	78945
#	95415
#	116052
#	125707
#	143942
#	162322
#	177095
#	193955
#	206727
#
# Disc length: 3034 seconds
#
# Revision: 1
# Processed by: cddbd v1.5.2PL0 Copyright (c) Steve Scherf et al.
# Submitted via: CDex 1.50Beta5
#
DISCID=ba0bd80d
DTITLE=工藤静香 - 昭和の階段 Vol.1
DYEAR=2002
DGENRE=Pop
TTITLE0=元気を出して
TTITLE1=恋人よ
TTITLE2=カサブランカ・ダンディ
TTITLE3=かもめはかもめ
TTITLE4=氷の世界
TTITLE5=黒の舟唄
TTITLE6=なんとなくなんとなく
TTITLE7=コーヒー・ルンバ
TTITLE8=アカシアの雨がやむとき
TTITLE9=カスバの女
TTITLE10=黒百合の歌
TTITLE11=テネシー・ワルツ
TTITLE12=星の流れに
EXTD=
EXTT0=
EXTT1=
EXTT2=
EXTT3=
EXTT4=
EXTT5=
EXTT6=
EXTT7=
EXTT8=
EXTT9=
EXTT10=
EXTT11=
EXTT12=
PLAYORDER=
